<svg width="370" height="104" viewBox="0 0 370 104" fill="none" xmlns="http://www.w3.org/2000/svg">
<path d="M0.693359 102V2.05859H63.8574V19.5586H21.8848V40.4082H30.2246C39.6126 40.4082 47.3145 41.707 53.3301 44.3047C59.3913 46.9023 63.8574 50.5026 66.7285 55.1055C69.6452 59.6628 71.1035 64.8809 71.1035 70.7598C71.1035 80.6491 67.7995 88.3281 61.1914 93.7969C54.6289 99.2656 44.1699 102 29.8145 102H0.693359ZM21.8848 84.6367H28.9941C35.4199 84.6367 40.4785 83.6113 44.1699 81.5605C47.8613 79.4642 49.707 75.8639 49.707 70.7598C49.707 67.2051 48.7956 64.4935 46.9727 62.625C45.1953 60.7565 42.6204 59.4805 39.248 58.7969C35.9212 58.1133 31.9336 57.7715 27.2852 57.7715H21.8848V84.6367ZM169.199 102H148.076V19.6953H123.604C123.057 23.9792 122.464 28.6504 121.826 33.709C121.188 38.7676 120.527 43.8717 119.844 49.0215C119.16 54.1712 118.431 59.0703 117.656 63.7188C116.927 68.3672 116.198 72.446 115.469 75.9551C114.284 81.7884 112.666 86.7559 110.615 90.8574C108.61 94.9134 105.853 98.0124 102.344 100.154C98.8802 102.296 94.3457 103.367 88.7402 103.367C86.8717 103.367 85.0716 103.23 83.3398 102.957C81.6536 102.684 80.0814 102.319 78.623 101.863V84.5C79.8079 84.9102 80.9928 85.252 82.1777 85.5254C83.3626 85.7533 84.6615 85.8672 86.0742 85.8672C87.8971 85.8672 89.401 85.2747 90.5859 84.0898C91.8164 82.8594 92.9102 80.7858 93.8672 77.8691C94.8242 74.9069 95.7812 70.8281 96.7383 65.6328C97.1484 63.3542 97.6953 60.1413 98.3789 55.9941C99.0625 51.8014 99.8372 46.9023 100.703 41.2969C101.569 35.6458 102.458 29.4935 103.369 22.8398C104.326 16.1862 105.238 9.25911 106.104 2.05859H169.199V102ZM285.137 51.8926C285.137 59.5944 284.18 66.6126 282.266 72.9473C280.352 79.2363 277.435 84.6595 273.516 89.2168C269.642 93.7741 264.72 97.2832 258.75 99.7441C252.78 102.16 245.716 103.367 237.559 103.367C229.401 103.367 222.337 102.16 216.367 99.7441C210.397 97.2832 205.452 93.7741 201.533 89.2168C197.66 84.6595 194.766 79.2135 192.852 72.8789C190.938 66.5443 189.98 59.5033 189.98 51.7559C189.98 41.4108 191.667 32.4102 195.039 24.7539C198.457 17.0521 203.698 11.082 210.762 6.84375C217.826 2.60547 226.803 0.486328 237.695 0.486328C248.542 0.486328 257.451 2.60547 264.424 6.84375C271.442 11.082 276.637 17.0521 280.01 24.7539C283.428 32.4557 285.137 41.502 285.137 51.8926ZM212.197 51.8926C212.197 58.8652 213.063 64.8809 214.795 69.9395C216.572 74.9525 219.329 78.8262 223.066 81.5605C226.803 84.2493 231.634 85.5938 237.559 85.5938C243.574 85.5938 248.451 84.2493 252.188 81.5605C255.924 78.8262 258.636 74.9525 260.322 69.9395C262.054 64.8809 262.92 58.8652 262.92 51.8926C262.92 41.4108 260.96 33.1621 257.041 27.1465C253.122 21.1309 246.673 18.123 237.695 18.123C231.725 18.123 226.849 19.4902 223.066 22.2246C219.329 24.9134 216.572 28.7871 214.795 33.8457C213.063 38.8587 212.197 44.8743 212.197 51.8926ZM369.014 2.05859V19.5586H327.041V102H305.85V2.05859H369.014Z" fill="#8B4BED" fill-opacity="0.08"/>
</svg>
