<svg width="986" height="135" viewBox="0 0 986 135" fill="none" xmlns="http://www.w3.org/2000/svg">
<path d="M82.2969 133.217H61.1738V90.0823H21.5938V133.217H0.402344V33.2756H21.5938V72.4456H61.1738V33.2756H82.2969V133.217ZM168.771 133.217L161.525 109.428H125.09L117.844 133.217H95.0117L130.285 32.8655H156.193L191.604 133.217H168.771ZM156.467 91.6545L149.221 68.4124C148.765 66.8629 148.15 64.8805 147.375 62.4651C146.646 60.0042 145.894 57.5204 145.119 55.0139C144.39 52.4618 143.798 50.2515 143.342 48.3831C142.886 50.2515 142.248 52.5758 141.428 55.3557C140.653 58.0901 139.901 60.6877 139.172 63.1487C138.443 65.6096 137.919 67.3642 137.6 68.4124L130.422 91.6545H156.467ZM329.963 133.217H204.25V33.2756H225.441V115.58H256.477V33.2756H277.805V115.58H308.84V33.2756H329.963V133.217ZM355.188 33.2756H374.26V81.5374C374.26 83.9071 374.214 86.5276 374.123 89.3987C374.077 92.2698 373.986 95.0953 373.85 97.8752C373.758 100.61 373.667 103.002 373.576 105.053C373.485 107.104 373.394 108.471 373.303 109.155H373.713L419.855 33.2756H445.217V133.217H426.35V85.2288C426.35 82.6767 426.395 79.8967 426.486 76.8889C426.577 73.8811 426.691 70.9644 426.828 68.1389C427.01 65.3134 427.17 62.8752 427.307 60.8245C427.443 58.7281 427.535 57.3381 427.58 56.6545H427.033L380.686 133.217H355.188V33.2756ZM588.293 133.217H564.23L528 82.5627V133.217H506.809V33.2756H528V81.6741L563.82 33.2756H586.379L549.943 81.2639L588.293 133.217ZM658.43 133.217H600.871V33.2756H658.43V50.6389H622.062V72.5823H655.9V89.9456H622.062V115.717H658.43V133.217ZM679.348 33.2756H698.42V81.5374C698.42 83.9071 698.374 86.5276 698.283 89.3987C698.238 92.2698 698.146 95.0953 698.01 97.8752C697.919 100.61 697.827 103.002 697.736 105.053C697.645 107.104 697.554 108.471 697.463 109.155H697.873L744.016 33.2756H769.377V133.217H750.51V85.2288C750.51 82.6767 750.555 79.8967 750.646 76.8889C750.738 73.8811 750.852 70.9644 750.988 68.1389C751.171 65.3134 751.33 62.8752 751.467 60.8245C751.604 58.7281 751.695 57.3381 751.74 56.6545H751.193L704.846 133.217H679.348V33.2756ZM759.875 0.394775C759.374 5.2255 758.007 9.48657 755.773 13.178C753.54 16.8694 750.054 19.7405 745.314 21.7913C740.575 23.842 734.195 24.8674 726.174 24.8674C717.925 24.8674 711.499 23.8876 706.896 21.928C702.294 19.9228 699.012 17.0972 697.053 13.4514C695.093 9.76001 693.908 5.4078 693.498 0.394775H712.16C712.57 5.54451 713.869 8.96248 716.057 10.6487C718.244 12.2893 721.753 13.1096 726.584 13.1096C730.594 13.1096 733.876 12.1982 736.428 10.3752C738.98 8.55233 740.507 5.2255 741.008 0.394775H759.875ZM837.053 49.4768C832.997 49.4768 829.396 50.2743 826.252 51.8694C823.153 53.4189 820.533 55.6747 818.391 58.637C816.294 61.5992 814.699 65.1767 813.605 69.3694C812.512 73.5621 811.965 78.2789 811.965 83.5198C811.965 90.5836 812.831 96.622 814.562 101.635C816.34 106.602 819.074 110.408 822.766 113.051C826.457 115.649 831.219 116.948 837.053 116.948C841.109 116.948 845.165 116.492 849.221 115.58C853.322 114.669 857.766 113.37 862.551 111.684V129.457C858.13 131.28 853.778 132.579 849.494 133.354C845.21 134.174 840.402 134.584 835.07 134.584C824.771 134.584 816.294 132.465 809.641 128.227C803.033 123.943 798.133 117.973 794.943 110.317C791.753 102.615 790.158 93.637 790.158 83.3831C790.158 75.818 791.184 68.8909 793.234 62.6018C795.285 56.3127 798.293 50.8668 802.258 46.2639C806.223 41.6611 811.122 38.1064 816.955 35.5999C822.788 33.0933 829.488 31.8401 837.053 31.8401C842.02 31.8401 846.988 32.4781 851.955 33.7542C856.968 34.9846 861.753 36.6936 866.311 38.8811L859.475 56.1077C855.738 54.3303 851.978 52.7808 848.195 51.4592C844.413 50.1376 840.699 49.4768 837.053 49.4768ZM883.879 133.217V33.2756H905.07V71.6252H911.906C921.158 71.6252 928.745 72.9241 934.67 75.5217C940.64 78.1194 945.061 81.7196 947.932 86.3225C950.803 90.8798 952.238 96.0979 952.238 101.977C952.238 111.866 948.957 119.545 942.395 125.014C935.878 130.483 925.487 133.217 911.223 133.217H883.879ZM905.07 115.854H910.607C916.851 115.854 921.773 114.828 925.373 112.778C928.973 110.681 930.773 107.081 930.773 101.977C930.773 98.4221 929.953 95.7105 928.312 93.842C926.672 91.9736 924.279 90.6975 921.135 90.0139C917.99 89.3303 914.162 88.9885 909.65 88.9885H905.07V115.854ZM964.406 133.217V33.2756H985.529V133.217H964.406Z" fill="#8B4BED" fill-opacity="0.08"/>
</svg>
