<svg width="760" height="104" viewBox="0 0 760 104" fill="none" xmlns="http://www.w3.org/2000/svg">
<path d="M95.7617 51.8926C95.7617 59.5944 94.8047 66.6126 92.8906 72.9473C90.9766 79.2363 88.0599 84.6595 84.1406 89.2168C80.2669 93.7741 75.3451 97.2832 69.375 99.7441C63.4049 102.16 56.3411 103.367 48.1836 103.367C40.026 103.367 32.9622 102.16 26.9922 99.7441C21.0221 97.2832 16.0775 93.7741 12.1582 89.2168C8.28451 84.6595 5.39062 79.2135 3.47656 72.8789C1.5625 66.5443 0.605469 59.5033 0.605469 51.7559C0.605469 41.4108 2.29167 32.4102 5.66406 24.7539C9.08203 17.0521 14.3229 11.082 21.3867 6.84375C28.4505 2.60547 37.4284 0.486328 48.3203 0.486328C59.1667 0.486328 68.0762 2.60547 75.0488 6.84375C82.0671 11.082 87.2624 17.0521 90.6348 24.7539C94.0527 32.4557 95.7617 41.502 95.7617 51.8926ZM22.8223 51.8926C22.8223 58.8652 23.6882 64.8809 25.4199 69.9395C27.1973 74.9525 29.9544 78.8262 33.6914 81.5605C37.4284 84.2493 42.2591 85.5938 48.1836 85.5938C54.1992 85.5938 59.0755 84.2493 62.8125 81.5605C66.5495 78.8262 69.2611 74.9525 70.9473 69.9395C72.679 64.8809 73.5449 58.8652 73.5449 51.8926C73.5449 41.4108 71.5853 33.1621 67.666 27.1465C63.7467 21.1309 57.2982 18.123 48.3203 18.123C42.3503 18.123 37.474 19.4902 33.6914 22.2246C29.9544 24.9134 27.1973 28.7871 25.4199 33.8457C23.6882 38.8587 22.8223 44.8743 22.8223 51.8926ZM116.475 102V2.05859H179.639V19.5586H137.666V40.4082H146.006C155.394 40.4082 163.096 41.707 169.111 44.3047C175.173 46.9023 179.639 50.5026 182.51 55.1055C185.426 59.6628 186.885 64.8809 186.885 70.7598C186.885 80.6491 183.581 88.3281 176.973 93.7969C170.41 99.2656 159.951 102 145.596 102H116.475ZM137.666 84.6367H144.775C151.201 84.6367 156.26 83.6113 159.951 81.5605C163.643 79.4642 165.488 75.8639 165.488 70.7598C165.488 67.2051 164.577 64.4935 162.754 62.625C160.977 60.7565 158.402 59.4805 155.029 58.7969C151.702 58.1133 147.715 57.7715 143.066 57.7715H137.666V84.6367ZM286.143 2.05859L255.176 72.7422C252.396 79.1224 249.434 84.6139 246.289 89.2168C243.145 93.7741 239.157 97.2832 234.326 99.7441C229.495 102.16 223.161 103.367 215.322 103.367C212.861 103.367 210.195 103.185 207.324 102.82C204.453 102.501 201.787 102 199.326 101.316V83.1328C201.605 83.9987 204.066 84.6367 206.709 85.0469C209.398 85.4115 211.927 85.5938 214.297 85.5938C217.396 85.5938 219.902 85.0697 221.816 84.0215C223.73 82.9733 225.257 81.5605 226.396 79.7832C227.536 78.0059 228.493 76.0234 229.268 73.8359L194.678 2.05859H217.1L235.762 45.3301C236.172 46.2415 236.696 47.472 237.334 49.0215C238.018 50.5254 238.678 52.0749 239.316 53.6699C240 55.2194 240.524 56.5866 240.889 57.7715H241.641C242.005 56.6322 242.484 55.265 243.076 53.6699C243.714 52.0293 244.375 50.3659 245.059 48.6797C245.742 46.9479 246.357 45.3984 246.904 44.0312L264.268 2.05859H286.143ZM375.488 102H354.297V63.377C348.418 65.3822 343.04 66.9089 338.164 67.957C333.288 69.0052 328.366 69.5293 323.398 69.5293C314.01 69.5293 306.696 67.2734 301.455 62.7617C296.214 58.2044 293.594 51.7331 293.594 43.3477V2.05859H314.717V37.332C314.717 42.1628 315.833 45.8086 318.066 48.2695C320.299 50.6849 324.082 51.8926 329.414 51.8926C333.333 51.8926 337.253 51.4824 341.172 50.6621C345.091 49.7962 349.466 48.5202 354.297 46.834V2.05859H375.488V102ZM458.271 102H400.713V2.05859H458.271V19.4219H421.904V41.3652H455.742V58.7285H421.904V84.5H458.271V102ZM561.084 102H539.961V58.8652H500.381V102H479.189V2.05859H500.381V41.2285H539.961V2.05859H561.084V102ZM586.377 2.05859H605.449V50.3203C605.449 52.6901 605.404 55.3105 605.312 58.1816C605.267 61.0527 605.176 63.8783 605.039 66.6582C604.948 69.3926 604.857 71.7852 604.766 73.8359C604.674 75.8867 604.583 77.2539 604.492 77.9375H604.902L651.045 2.05859H676.406V102H657.539V54.0117C657.539 51.4596 657.585 48.6797 657.676 45.6719C657.767 42.6641 657.881 39.7474 658.018 36.9219C658.2 34.0964 658.359 31.6582 658.496 29.6074C658.633 27.5111 658.724 26.1211 658.77 25.4375H658.223L611.875 102H586.377V2.05859ZM759.189 102H701.631V2.05859H759.189V19.4219H722.822V41.3652H756.66V58.7285H722.822V84.5H759.189V102Z" fill="#8B4BED" fill-opacity="0.08"/>
</svg>
