<svg width="992" height="104" viewBox="0 0 992 104" fill="none" xmlns="http://www.w3.org/2000/svg">
<path d="M47.8008 18.2598C43.7448 18.2598 40.1445 19.0573 37 20.6523C33.901 22.2018 31.2806 24.4577 29.1387 27.4199C27.0423 30.3822 25.4473 33.9596 24.3535 38.1523C23.2598 42.3451 22.7129 47.0618 22.7129 52.3027C22.7129 59.3665 23.5788 65.4049 25.3105 70.418C27.0879 75.3854 29.8223 79.1908 33.5137 81.834C37.2051 84.4316 41.9674 85.7305 47.8008 85.7305C51.8568 85.7305 55.9128 85.2747 59.9688 84.3633C64.0703 83.4518 68.5137 82.153 73.2988 80.4668V98.2402C68.8783 100.063 64.526 101.362 60.2422 102.137C55.9583 102.957 51.1504 103.367 45.8184 103.367C35.5189 103.367 27.0423 101.248 20.3887 97.0098C13.7806 92.7259 8.88151 86.7559 5.69141 79.0996C2.5013 71.3978 0.90625 62.4199 0.90625 52.166C0.90625 44.6009 1.93164 37.6738 3.98242 31.3848C6.0332 25.0957 9.04102 19.6497 13.0059 15.0469C16.9707 10.444 21.8698 6.88932 27.7031 4.38281C33.5365 1.8763 40.2357 0.623047 47.8008 0.623047C52.7682 0.623047 57.7357 1.26107 62.7031 2.53711C67.7161 3.76758 72.5013 5.47656 77.0586 7.66406L70.2227 24.8906C66.4857 23.1133 62.7259 21.5638 58.9434 20.2422C55.1608 18.9206 51.4466 18.2598 47.8008 18.2598ZM133.182 102H111.99V19.6953H84.8516V2.05859H160.32V19.6953H133.182V102ZM236.883 102L229.637 78.2109H193.201L185.955 102H163.123L198.396 1.64844H224.305L259.715 102H236.883ZM224.578 60.4375L217.332 37.1953C216.876 35.6458 216.261 33.6634 215.486 31.248C214.757 28.7871 214.005 26.3034 213.23 23.7969C212.501 21.2448 211.909 19.0345 211.453 17.166C210.997 19.0345 210.359 21.3587 209.539 24.1387C208.764 26.873 208.012 29.4707 207.283 31.9316C206.554 34.3926 206.03 36.1471 205.711 37.1953L198.533 60.4375H224.578ZM295.33 50.0469L261.766 2.05859H283.572L315.906 50.457V2.05859H335.662V50.457L367.996 2.05859H389.871L356.238 50.0469L391.785 102H369.09L335.662 51.3457V102H315.906V51.3457L282.479 102H259.783L295.33 50.0469ZM404.432 2.05859H423.504V50.3203C423.504 52.6901 423.458 55.3105 423.367 58.1816C423.322 61.0527 423.23 63.8783 423.094 66.6582C423.003 69.3926 422.911 71.7852 422.82 73.8359C422.729 75.8867 422.638 77.2539 422.547 77.9375H422.957L469.1 2.05859H494.461V102H475.594V54.0117C475.594 51.4596 475.639 48.6797 475.73 45.6719C475.822 42.6641 475.936 39.7474 476.072 36.9219C476.255 34.0964 476.414 31.6582 476.551 29.6074C476.688 27.5111 476.779 26.1211 476.824 25.4375H476.277L429.93 102H404.432V2.05859ZM551.609 2.05859C564.507 2.05859 573.917 4.83854 579.842 10.3984C585.766 15.9128 588.729 23.5234 588.729 33.2305C588.729 37.6055 588.068 41.7982 586.746 45.8086C585.424 49.7734 583.26 53.3053 580.252 56.4043C577.29 59.5033 573.325 61.9642 568.357 63.7871C563.39 65.5645 557.26 66.4531 549.969 66.4531H540.877V102H519.686V2.05859H551.609ZM550.516 19.4219H540.877V49.0898H547.85C551.814 49.0898 555.255 48.5658 558.172 47.5176C561.089 46.4694 563.344 44.8288 564.939 42.5957C566.535 40.3626 567.332 37.4915 567.332 33.9824C567.332 29.0605 565.965 25.4147 563.23 23.0449C560.496 20.6296 556.258 19.4219 550.516 19.4219ZM698.309 51.8926C698.309 59.5944 697.352 66.6126 695.438 72.9473C693.523 79.2363 690.607 84.6595 686.688 89.2168C682.814 93.7741 677.892 97.2832 671.922 99.7441C665.952 102.16 658.888 103.367 650.73 103.367C642.573 103.367 635.509 102.16 629.539 99.7441C623.569 97.2832 618.624 93.7741 614.705 89.2168C610.831 84.6595 607.938 79.2135 606.023 72.8789C604.109 66.5443 603.152 59.5033 603.152 51.7559C603.152 41.4108 604.839 32.4102 608.211 24.7539C611.629 17.0521 616.87 11.082 623.934 6.84375C630.997 2.60547 639.975 0.486328 650.867 0.486328C661.714 0.486328 670.623 2.60547 677.596 6.84375C684.614 11.082 689.809 17.0521 693.182 24.7539C696.6 32.4557 698.309 41.502 698.309 51.8926ZM625.369 51.8926C625.369 58.8652 626.235 64.8809 627.967 69.9395C629.744 74.9525 632.501 78.8262 636.238 81.5605C639.975 84.2493 644.806 85.5938 650.73 85.5938C656.746 85.5938 661.622 84.2493 665.359 81.5605C669.096 78.8262 671.808 74.9525 673.494 69.9395C675.226 64.8809 676.092 58.8652 676.092 51.8926C676.092 41.4108 674.132 33.1621 670.213 27.1465C666.294 21.1309 659.845 18.123 650.867 18.123C644.897 18.123 640.021 19.4902 636.238 22.2246C632.501 24.9134 629.744 28.7871 627.967 33.8457C626.235 38.8587 625.369 44.8743 625.369 51.8926ZM719.021 2.05859H750.125C763.432 2.05859 773.504 3.92708 780.34 7.66406C787.176 11.401 790.594 17.9635 790.594 27.3516C790.594 31.1341 789.979 34.5521 788.748 37.6055C787.563 40.6589 785.831 43.1654 783.553 45.125C781.274 47.0846 778.494 48.3607 775.213 48.9531V49.6367C778.54 50.3203 781.548 51.5052 784.236 53.1914C786.925 54.832 789.067 57.2474 790.662 60.4375C792.303 63.582 793.123 67.7747 793.123 73.0156C793.123 79.0768 791.642 84.2721 788.68 88.6016C785.717 92.931 781.479 96.2578 775.965 98.582C770.496 100.861 763.979 102 756.414 102H719.021V2.05859ZM740.213 41.6387H752.518C758.67 41.6387 762.931 40.6816 765.301 38.7676C767.671 36.8079 768.855 33.9368 768.855 30.1543C768.855 26.3262 767.443 23.5918 764.617 21.9512C761.837 20.265 757.417 19.4219 751.355 19.4219H740.213V41.6387ZM740.213 58.4551V84.5H754.021C760.402 84.5 764.845 83.2695 767.352 80.8086C769.858 78.3477 771.111 75.0436 771.111 70.8965C771.111 68.4355 770.564 66.2708 769.471 64.4023C768.377 62.5339 766.531 61.0755 763.934 60.0273C761.382 58.9792 757.85 58.4551 753.338 58.4551H740.213ZM894.568 102H870.506L834.275 51.3457V102H813.084V2.05859H834.275V50.457L870.096 2.05859H892.654L856.219 50.0469L894.568 102ZM968.328 102L961.082 78.2109H924.646L917.4 102H894.568L929.842 1.64844H955.75L991.16 102H968.328ZM956.023 60.4375L948.777 37.1953C948.322 35.6458 947.706 33.6634 946.932 31.248C946.202 28.7871 945.451 26.3034 944.676 23.7969C943.947 21.2448 943.354 19.0345 942.898 17.166C942.443 19.0345 941.805 21.3587 940.984 24.1387C940.21 26.873 939.458 29.4707 938.729 31.9316C937.999 34.3926 937.475 36.1471 937.156 37.1953L929.979 60.4375H956.023Z" fill="#8B4BED" fill-opacity="0.08"/>
</svg>
