<svg width="560" height="104" viewBox="0 0 560 104" fill="none" xmlns="http://www.w3.org/2000/svg">
<path d="M92.2695 2.27563L61.3027 72.9592C58.5228 79.3394 55.5605 84.831 52.416 89.4338C49.2715 93.9911 45.2839 97.5002 40.4531 99.9612C35.6224 102.377 29.2878 103.584 21.4492 103.584C18.9883 103.584 16.3223 103.402 13.4512 103.037C10.5801 102.718 7.91406 102.217 5.45312 101.533V83.3499C7.73177 84.2157 10.1927 84.8538 12.8359 85.2639C15.5247 85.6285 18.054 85.8108 20.4238 85.8108C23.5228 85.8108 26.0293 85.2867 27.9434 84.2385C29.8574 83.1903 31.3841 81.7776 32.5234 80.0002C33.6628 78.2229 34.6198 76.2405 35.3945 74.053L0.804688 2.27563H23.2266L41.8887 45.5471C42.2988 46.4586 42.8229 47.689 43.4609 49.2385C44.1445 50.7424 44.8053 52.2919 45.4434 53.887C46.127 55.4364 46.651 56.8036 47.0156 57.9885H47.7676C48.1322 56.8492 48.6107 55.482 49.2031 53.887C49.8411 52.2463 50.502 50.5829 51.1855 48.8967C51.8691 47.165 52.4844 45.6155 53.0312 44.2483L70.3945 2.27563H92.2695ZM147.299 18.4768C143.243 18.4768 139.643 19.2743 136.498 20.8694C133.399 22.4189 130.779 24.6747 128.637 27.637C126.54 30.5992 124.945 34.1767 123.852 38.3694C122.758 42.5621 122.211 47.2789 122.211 52.5198C122.211 59.5836 123.077 65.622 124.809 70.635C126.586 75.6025 129.32 79.4078 133.012 82.051C136.703 84.6487 141.465 85.9475 147.299 85.9475C151.355 85.9475 155.411 85.4918 159.467 84.5803C163.568 83.6689 168.012 82.37 172.797 80.6838V98.4573C168.376 100.28 164.024 101.579 159.74 102.354C155.456 103.174 150.648 103.584 145.316 103.584C135.017 103.584 126.54 101.465 119.887 97.2268C113.279 92.943 108.38 86.9729 105.189 79.3167C101.999 71.6148 100.404 62.637 100.404 52.3831C100.404 44.818 101.43 37.8909 103.48 31.6018C105.531 25.3127 108.539 19.8668 112.504 15.2639C116.469 10.6611 121.368 7.10636 127.201 4.59985C133.035 2.09334 139.734 0.840088 147.299 0.840088C152.266 0.840088 157.234 1.47811 162.201 2.75415C167.214 3.98462 171.999 5.6936 176.557 7.8811L169.721 25.1077C165.984 23.3303 162.224 21.7808 158.441 20.4592C154.659 19.1376 150.945 18.4768 147.299 18.4768ZM273.217 102.217H252.094V19.9124H227.621C227.074 24.1962 226.482 28.8674 225.844 33.926C225.206 38.9846 224.545 44.0888 223.861 49.2385C223.178 54.3883 222.449 59.2874 221.674 63.9358C220.945 68.5842 220.215 72.663 219.486 76.1721C218.301 82.0055 216.684 86.9729 214.633 91.0745C212.628 95.1305 209.87 98.2294 206.361 100.371C202.898 102.513 198.363 103.584 192.758 103.584C190.889 103.584 189.089 103.448 187.357 103.174C185.671 102.901 184.099 102.536 182.641 102.08V84.717C183.826 85.1272 185.01 85.469 186.195 85.7424C187.38 85.9703 188.679 86.0842 190.092 86.0842C191.915 86.0842 193.419 85.4918 194.604 84.3069C195.834 83.0764 196.928 81.0028 197.885 78.0862C198.842 75.1239 199.799 71.0452 200.756 65.8499C201.166 63.5712 201.713 60.3583 202.396 56.2112C203.08 52.0185 203.855 47.1194 204.721 41.5139C205.587 35.8629 206.475 29.7105 207.387 23.0569C208.344 16.4032 209.255 9.47616 210.121 2.27563H273.217V102.217ZM378.695 2.27563L347.729 72.9592C344.949 79.3394 341.986 84.831 338.842 89.4338C335.697 93.9911 331.71 97.5002 326.879 99.9612C322.048 102.377 315.714 103.584 307.875 103.584C305.414 103.584 302.748 103.402 299.877 103.037C297.006 102.718 294.34 102.217 291.879 101.533V83.3499C294.158 84.2157 296.618 84.8538 299.262 85.2639C301.951 85.6285 304.48 85.8108 306.85 85.8108C309.949 85.8108 312.455 85.2867 314.369 84.2385C316.283 83.1903 317.81 81.7776 318.949 80.0002C320.089 78.2229 321.046 76.2405 321.82 74.053L287.23 2.27563H309.652L328.314 45.5471C328.725 46.4586 329.249 47.689 329.887 49.2385C330.57 50.7424 331.231 52.2919 331.869 53.887C332.553 55.4364 333.077 56.8036 333.441 57.9885H334.193C334.558 56.8492 335.036 55.482 335.629 53.887C336.267 52.2463 336.928 50.5829 337.611 48.8967C338.295 47.165 338.91 45.6155 339.457 44.2483L356.82 2.27563H378.695ZM454.438 2.27563V19.7756H412.465V102.217H391.273V2.27563H454.438ZM469.887 2.27563H488.959V50.5374C488.959 52.9071 488.913 55.5276 488.822 58.3987C488.777 61.2698 488.686 64.0953 488.549 66.8752C488.458 69.6096 488.367 72.0022 488.275 74.053C488.184 76.1038 488.093 77.4709 488.002 78.1545H488.412L534.555 2.27563H559.916V102.217H541.049V54.2288C541.049 51.6767 541.094 48.8967 541.186 45.8889C541.277 42.8811 541.391 39.9644 541.527 37.1389C541.71 34.3134 541.869 31.8752 542.006 29.8245C542.143 27.7281 542.234 26.3381 542.279 25.6545H541.732L495.385 102.217H469.887V2.27563Z" fill="#8B4BED" fill-opacity="0.08"/>
</svg>
