<svg width="938" height="71" viewBox="0 0 938 71" fill="none" xmlns="http://www.w3.org/2000/svg">
<path d="M0.578125 70V1.46875H43.8906V13.4688H15.1094V27.7656H20.8281C27.2656 27.7656 32.5469 28.6562 36.6719 30.4375C40.8281 32.2188 43.8906 34.6875 45.8594 37.8438C47.8594 40.9688 48.8594 44.5469 48.8594 48.5781C48.8594 55.3594 46.5938 60.625 42.0625 64.375C37.5625 68.125 30.3906 70 20.5469 70H0.578125ZM15.1094 58.0938H19.9844C24.3906 58.0938 27.8594 57.3906 30.3906 55.9844C32.9219 54.5469 34.1875 52.0781 34.1875 48.5781C34.1875 46.1406 33.5625 44.2812 32.3125 43C31.0938 41.7188 29.3281 40.8438 27.0156 40.375C24.7344 39.9062 22 39.6719 18.8125 39.6719H15.1094V58.0938ZM101.359 70H61.8906V1.46875H101.359V13.375H76.4219V28.4219H99.625V40.3281H76.4219V58H101.359V70ZM137.594 1.46875C146.438 1.46875 152.891 3.375 156.953 7.1875C161.016 10.9688 163.047 16.1875 163.047 22.8438C163.047 25.8438 162.594 28.7188 161.688 31.4688C160.781 34.1875 159.297 36.6094 157.234 38.7344C155.203 40.8594 152.484 42.5469 149.078 43.7969C145.672 45.0156 141.469 45.625 136.469 45.625H130.234V70H115.703V1.46875H137.594ZM136.844 13.375H130.234V33.7188H135.016C137.734 33.7188 140.094 33.3594 142.094 32.6406C144.094 31.9219 145.641 30.7969 146.734 29.2656C147.828 27.7344 148.375 25.7656 148.375 23.3594C148.375 19.9844 147.438 17.4844 145.562 15.8594C143.688 14.2031 140.781 13.375 136.844 13.375ZM215.453 70H175.984V1.46875H215.453V13.375H190.516V28.4219H213.719V40.3281H190.516V58H215.453V70ZM258.812 70L242.312 16.2344H241.891C241.953 17.5156 242.047 19.4531 242.172 22.0469C242.328 24.6094 242.469 27.3438 242.594 30.25C242.719 33.1562 242.781 35.7812 242.781 38.125V70H229.797V1.46875H249.578L265.797 53.875H266.078L283.281 1.46875H303.062V70H289.516V37.5625C289.516 35.4062 289.547 32.9219 289.609 30.1094C289.703 27.2969 289.812 24.625 289.938 22.0938C290.062 19.5312 290.156 17.6094 290.219 16.3281H289.797L272.125 70H258.812ZM345.297 1.46875H366.625C375.75 1.46875 382.656 2.75 387.344 5.3125C392.031 7.875 394.375 12.375 394.375 18.8125C394.375 21.4062 393.953 23.75 393.109 25.8438C392.297 27.9375 391.109 29.6562 389.547 31C387.984 32.3438 386.078 33.2188 383.828 33.625V34.0938C386.109 34.5625 388.172 35.375 390.016 36.5312C391.859 37.6562 393.328 39.3125 394.422 41.5C395.547 43.6562 396.109 46.5312 396.109 50.125C396.109 54.2812 395.094 57.8438 393.062 60.8125C391.031 63.7812 388.125 66.0625 384.344 67.6562C380.594 69.2188 376.125 70 370.938 70H345.297V1.46875ZM359.828 28.6094H368.266C372.484 28.6094 375.406 27.9531 377.031 26.6406C378.656 25.2969 379.469 23.3281 379.469 20.7344C379.469 18.1094 378.5 16.2344 376.562 15.1094C374.656 13.9531 371.625 13.375 367.469 13.375H359.828V28.6094ZM359.828 40.1406V58H369.297C373.672 58 376.719 57.1562 378.438 55.4688C380.156 53.7812 381.016 51.5156 381.016 48.6719C381.016 46.9844 380.641 45.5 379.891 44.2188C379.141 42.9375 377.875 41.9375 376.094 41.2188C374.344 40.5 371.922 40.1406 368.828 40.1406H359.828ZM438.906 12.5781C436.125 12.5781 433.656 13.125 431.5 14.2188C429.375 15.2812 427.578 16.8281 426.109 18.8594C424.672 20.8906 423.578 23.3438 422.828 26.2188C422.078 29.0938 421.703 32.3281 421.703 35.9219C421.703 40.7656 422.297 44.9062 423.484 48.3438C424.703 51.75 426.578 54.3594 429.109 56.1719C431.641 57.9531 434.906 58.8438 438.906 58.8438C441.688 58.8438 444.469 58.5312 447.25 57.9062C450.062 57.2812 453.109 56.3906 456.391 55.2344V67.4219C453.359 68.6719 450.375 69.5625 447.438 70.0938C444.5 70.6562 441.203 70.9375 437.547 70.9375C430.484 70.9375 424.672 69.4844 420.109 66.5781C415.578 63.6406 412.219 59.5469 410.031 54.2969C407.844 49.0156 406.75 42.8594 406.75 35.8281C406.75 30.6406 407.453 25.8906 408.859 21.5781C410.266 17.2656 412.328 13.5312 415.047 10.375C417.766 7.21875 421.125 4.78125 425.125 3.0625C429.125 1.34375 433.719 0.484375 438.906 0.484375C442.312 0.484375 445.719 0.921875 449.125 1.79688C452.562 2.64062 455.844 3.8125 458.969 5.3125L454.281 17.125C451.719 15.9062 449.141 14.8438 446.547 13.9375C443.953 13.0312 441.406 12.5781 438.906 12.5781ZM510.484 70H471.016V1.46875H510.484V13.375H485.547V28.4219H508.75V40.3281H485.547V58H510.484V70ZM605.922 70H591.438V40.4219H564.297V70H549.766V1.46875H564.297V28.3281H591.438V1.46875H605.922V70ZM665.219 70L660.25 53.6875H635.266L630.297 70H614.641L638.828 1.1875H656.594L680.875 70H665.219ZM656.781 41.5L651.812 25.5625C651.5 24.5 651.078 23.1406 650.547 21.4844C650.047 19.7969 649.531 18.0938 649 16.375C648.5 14.625 648.094 13.1094 647.781 11.8281C647.469 13.1094 647.031 14.7031 646.469 16.6094C645.938 18.4844 645.422 20.2656 644.922 21.9531C644.422 23.6406 644.062 24.8438 643.844 25.5625L638.922 41.5H656.781ZM743.594 12.5781C740.812 12.5781 738.344 13.125 736.188 14.2188C734.062 15.2812 732.266 16.8281 730.797 18.8594C729.359 20.8906 728.266 23.3438 727.516 26.2188C726.766 29.0938 726.391 32.3281 726.391 35.9219C726.391 40.7656 726.984 44.9062 728.172 48.3438C729.391 51.75 731.266 54.3594 733.797 56.1719C736.328 57.9531 739.594 58.8438 743.594 58.8438C746.375 58.8438 749.156 58.5312 751.938 57.9062C754.75 57.2812 757.797 56.3906 761.078 55.2344V67.4219C758.047 68.6719 755.062 69.5625 752.125 70.0938C749.188 70.6562 745.891 70.9375 742.234 70.9375C735.172 70.9375 729.359 69.4844 724.797 66.5781C720.266 63.6406 716.906 59.5469 714.719 54.2969C712.531 49.0156 711.438 42.8594 711.438 35.8281C711.438 30.6406 712.141 25.8906 713.547 21.5781C714.953 17.2656 717.016 13.5312 719.734 10.375C722.453 7.21875 725.812 4.78125 729.812 3.0625C733.812 1.34375 738.406 0.484375 743.594 0.484375C747 0.484375 750.406 0.921875 753.812 1.79688C757.25 2.64062 760.531 3.8125 763.656 5.3125L758.969 17.125C756.406 15.9062 753.828 14.8438 751.234 13.9375C748.641 13.0312 746.094 12.5781 743.594 12.5781ZM815.172 70H775.703V1.46875H815.172V13.375H790.234V28.4219H813.438V40.3281H790.234V58H815.172V70ZM829.516 70V1.46875H872.828V13.4688H844.047V27.7656H849.766C856.203 27.7656 861.484 28.6562 865.609 30.4375C869.766 32.2188 872.828 34.6875 874.797 37.8438C876.797 40.9688 877.797 44.5469 877.797 48.5781C877.797 55.3594 875.531 60.625 871 64.375C866.5 68.125 859.328 70 849.484 70H829.516ZM844.047 58.0938H848.922C853.328 58.0938 856.797 57.3906 859.328 55.9844C861.859 54.5469 863.125 52.0781 863.125 48.5781C863.125 46.1406 862.5 44.2812 861.25 43C860.031 41.7188 858.266 40.8438 855.953 40.375C853.672 39.9062 850.938 39.6719 847.75 39.6719H844.047V58.0938ZM913.891 43.7031L897.859 70H881.734L901.234 39.8594C899.391 39.0781 897.531 37.9375 895.656 36.4375C893.812 34.9375 892.281 32.9375 891.062 30.4375C889.844 27.9062 889.234 24.7812 889.234 21.0625C889.234 14.7188 891.5 9.875 896.031 6.53125C900.562 3.15625 906.922 1.46875 915.109 1.46875H937.422V70H922.891V43.7031H913.891ZM922.891 13.375H915.719C913.219 13.375 911.078 13.6719 909.297 14.2656C907.547 14.8594 906.203 15.7969 905.266 17.0781C904.359 18.3281 903.906 20 903.906 22.0938C903.906 25.125 904.906 27.5156 906.906 29.2656C908.906 31.0156 911.969 31.8906 916.094 31.8906H922.891V13.375Z" fill="#8B4BED" fill-opacity="0.08"/>
</svg>
