<svg width="733" height="132" viewBox="0 0 733 132" fill="none" xmlns="http://www.w3.org/2000/svg">
<path d="M81.5039 102H57.4414L21.2109 51.3457V102H0.0195312V2.05859H21.2109V50.457L57.0312 2.05859H79.5898L43.1543 50.0469L81.5039 102ZM184.795 51.8926C184.795 59.5944 183.838 66.6126 181.924 72.9473C180.01 79.2363 177.093 84.6595 173.174 89.2168C169.3 93.7741 164.378 97.2832 158.408 99.7441C152.438 102.16 145.374 103.367 137.217 103.367C129.059 103.367 121.995 102.16 116.025 99.7441C110.055 97.2832 105.111 93.7741 101.191 89.2168C97.3177 84.6595 94.4238 79.2135 92.5098 72.8789C90.5957 66.5443 89.6387 59.5033 89.6387 51.7559C89.6387 41.4108 91.3249 32.4102 94.6973 24.7539C98.1152 17.0521 103.356 11.082 110.42 6.84375C117.484 2.60547 126.462 0.486328 137.354 0.486328C148.2 0.486328 157.109 2.60547 164.082 6.84375C171.1 11.082 176.296 17.0521 179.668 24.7539C183.086 32.4557 184.795 41.502 184.795 51.8926ZM111.855 51.8926C111.855 58.8652 112.721 64.8809 114.453 69.9395C116.23 74.9525 118.988 78.8262 122.725 81.5605C126.462 84.2493 131.292 85.5938 137.217 85.5938C143.232 85.5938 148.109 84.2493 151.846 81.5605C155.583 78.8262 158.294 74.9525 159.98 69.9395C161.712 64.8809 162.578 58.8652 162.578 51.8926C162.578 41.4108 160.618 33.1621 156.699 27.1465C152.78 21.1309 146.331 18.123 137.354 18.123C131.383 18.123 126.507 19.4902 122.725 22.2246C118.988 24.9134 116.23 28.7871 114.453 33.8457C112.721 38.8587 111.855 44.8743 111.855 51.8926ZM247.822 102L223.76 23.5918H223.145C223.236 25.4603 223.372 28.2858 223.555 32.0684C223.783 35.8053 223.988 39.793 224.17 44.0312C224.352 48.2695 224.443 52.0977 224.443 55.5156V102H205.508V2.05859H234.355L258.008 78.4844H258.418L283.506 2.05859H312.354V102H292.598V54.6953C292.598 51.5508 292.643 47.9277 292.734 43.8262C292.871 39.7246 293.031 35.8281 293.213 32.1367C293.395 28.3997 293.532 25.597 293.623 23.7285H293.008L267.236 102H247.822ZM398.76 102L391.514 78.2109H355.078L347.832 102H325L360.273 1.64844H386.182L421.592 102H398.76ZM386.455 60.4375L379.209 37.1953C378.753 35.6458 378.138 33.6634 377.363 31.248C376.634 28.7871 375.882 26.3034 375.107 23.7969C374.378 21.2448 373.786 19.0345 373.33 17.166C372.874 19.0345 372.236 21.3587 371.416 24.1387C370.641 26.873 369.889 29.4707 369.16 31.9316C368.431 34.3926 367.907 36.1471 367.588 37.1953L360.41 60.4375H386.455ZM516.133 102H495.01V58.8652H455.43V102H434.238V2.05859H455.43V41.2285H495.01V2.05859H516.133V102ZM619.697 2.05859V84.3633H633.027V131.121H612.588V102H549.971V131.121H529.531V84.3633H537.256C539.854 79.168 542.36 73.6764 544.775 67.8887C547.191 62.1009 549.447 55.8802 551.543 49.2266C553.639 42.5729 555.531 35.3496 557.217 27.5566C558.903 19.7637 560.316 11.2643 561.455 2.05859H619.697ZM598.574 19.6953H578.271C577.588 24.526 576.654 29.6758 575.469 35.1445C574.284 40.6133 572.871 46.196 571.23 51.8926C569.635 57.5436 567.835 63.1263 565.83 68.6406C563.87 74.1549 561.774 79.3958 559.541 84.3633H598.574V19.6953ZM709.658 102L702.412 78.2109H665.977L658.73 102H635.898L671.172 1.64844H697.08L732.49 102H709.658ZM697.354 60.4375L690.107 37.1953C689.652 35.6458 689.036 33.6634 688.262 31.248C687.533 28.7871 686.781 26.3034 686.006 23.7969C685.277 21.2448 684.684 19.0345 684.229 17.166C683.773 19.0345 683.135 21.3587 682.314 24.1387C681.54 26.873 680.788 29.4707 680.059 31.9316C679.329 34.3926 678.805 36.1471 678.486 37.1953L671.309 60.4375H697.354Z" fill="#8B4BED" fill-opacity="0.08"/>
</svg>
