<svg width="1161" height="132" viewBox="0 0 1161 132" fill="none" xmlns="http://www.w3.org/2000/svg">
<path d="M82.8555 102H61.7324V58.8652H22.1523V102H0.960938V2.05859H22.1523V41.2285H61.7324V2.05859H82.8555V102ZM169.33 102L162.084 78.2109H125.648L118.402 102H95.5703L130.844 1.64844H156.752L192.162 102H169.33ZM157.025 60.4375L149.779 37.1953C149.324 35.6458 148.708 33.6634 147.934 31.248C147.204 28.7871 146.452 26.3034 145.678 23.7969C144.949 21.2448 144.356 19.0345 143.9 17.166C143.445 19.0345 142.807 21.3587 141.986 24.1387C141.212 26.873 140.46 29.4707 139.73 31.9316C139.001 34.3926 138.477 36.1471 138.158 37.1953L130.98 60.4375H157.025ZM247.123 102L223.061 23.5918H222.445C222.536 25.4603 222.673 28.2858 222.855 32.0684C223.083 35.8053 223.288 39.793 223.471 44.0312C223.653 48.2695 223.744 52.0977 223.744 55.5156V102H204.809V2.05859H233.656L257.309 78.4844H257.719L282.807 2.05859H311.654V102H291.898V54.6953C291.898 51.5508 291.944 47.9277 292.035 43.8262C292.172 39.7246 292.331 35.8281 292.514 32.1367C292.696 28.3997 292.833 25.597 292.924 23.7285H292.309L266.537 102H247.123ZM451.518 2.05859V84.3633H464.848V131.121H444.408V102H381.791V131.121H361.352V84.3633H369.076C371.674 79.168 374.18 73.6764 376.596 67.8887C379.011 62.1009 381.267 55.8802 383.363 49.2266C385.46 42.5729 387.351 35.3496 389.037 27.5566C390.723 19.7637 392.136 11.2643 393.275 2.05859H451.518ZM430.395 19.6953H410.092C409.408 24.526 408.474 29.6758 407.289 35.1445C406.104 40.6133 404.691 46.196 403.051 51.8926C401.456 57.5436 399.656 63.1263 397.65 68.6406C395.691 74.1549 393.594 79.3958 391.361 84.3633H430.395V19.6953ZM571.01 51.8926C571.01 59.5944 570.053 66.6126 568.139 72.9473C566.225 79.2363 563.308 84.6595 559.389 89.2168C555.515 93.7741 550.593 97.2832 544.623 99.7441C538.653 102.16 531.589 103.367 523.432 103.367C515.274 103.367 508.21 102.16 502.24 99.7441C496.27 97.2832 491.326 93.7741 487.406 89.2168C483.533 84.6595 480.639 79.2135 478.725 72.8789C476.811 66.5443 475.854 59.5033 475.854 51.7559C475.854 41.4108 477.54 32.4102 480.912 24.7539C484.33 17.0521 489.571 11.082 496.635 6.84375C503.699 2.60547 512.676 0.486328 523.568 0.486328C534.415 0.486328 543.324 2.60547 550.297 6.84375C557.315 11.082 562.51 17.0521 565.883 24.7539C569.301 32.4557 571.01 41.502 571.01 51.8926ZM498.07 51.8926C498.07 58.8652 498.936 64.8809 500.668 69.9395C502.445 74.9525 505.202 78.8262 508.939 81.5605C512.676 84.2493 517.507 85.5938 523.432 85.5938C529.447 85.5938 534.324 84.2493 538.061 81.5605C541.798 78.8262 544.509 74.9525 546.195 69.9395C547.927 64.8809 548.793 58.8652 548.793 51.8926C548.793 41.4108 546.833 33.1621 542.914 27.1465C538.995 21.1309 532.546 18.123 523.568 18.123C517.598 18.123 512.722 19.4902 508.939 22.2246C505.202 24.9134 502.445 28.7871 500.668 33.8457C498.936 38.8587 498.07 44.8743 498.07 51.8926ZM591.723 2.05859H622.826C636.133 2.05859 646.205 3.92708 653.041 7.66406C659.877 11.401 663.295 17.9635 663.295 27.3516C663.295 31.1341 662.68 34.5521 661.449 37.6055C660.264 40.6589 658.533 43.1654 656.254 45.125C653.975 47.0846 651.195 48.3607 647.914 48.9531V49.6367C651.241 50.3203 654.249 51.5052 656.938 53.1914C659.626 54.832 661.768 57.2474 663.363 60.4375C665.004 63.582 665.824 67.7747 665.824 73.0156C665.824 79.0768 664.343 84.2721 661.381 88.6016C658.419 92.931 654.18 96.2578 648.666 98.582C643.197 100.861 636.68 102 629.115 102H591.723V2.05859ZM612.914 41.6387H625.219C631.371 41.6387 635.632 40.6816 638.002 38.7676C640.372 36.8079 641.557 33.9368 641.557 30.1543C641.557 26.3262 640.144 23.5918 637.318 21.9512C634.538 20.265 630.118 19.4219 624.057 19.4219H612.914V41.6387ZM612.914 58.4551V84.5H626.723C633.103 84.5 637.546 83.2695 640.053 80.8086C642.559 78.3477 643.812 75.0436 643.812 70.8965C643.812 68.4355 643.266 66.2708 642.172 64.4023C641.078 62.5339 639.232 61.0755 636.635 60.0273C634.083 58.9792 630.551 58.4551 626.039 58.4551H612.914ZM743.344 102H685.785V2.05859H743.344V19.4219H706.977V41.3652H740.814V58.7285H706.977V84.5H743.344V102ZM796.186 2.05859C809.083 2.05859 818.493 4.83854 824.418 10.3984C830.342 15.9128 833.305 23.5234 833.305 33.2305C833.305 37.6055 832.644 41.7982 831.322 45.8086C830.001 49.7734 827.836 53.3053 824.828 56.4043C821.866 59.5033 817.901 61.9642 812.934 63.7871C807.966 65.5645 801.837 66.4531 794.545 66.4531H785.453V102H764.262V2.05859H796.186ZM795.092 19.4219H785.453V49.0898H792.426C796.391 49.0898 799.831 48.5658 802.748 47.5176C805.665 46.4694 807.921 44.8288 809.516 42.5957C811.111 40.3626 811.908 37.4915 811.908 33.9824C811.908 29.0605 810.541 25.4147 807.807 23.0449C805.072 20.6296 800.834 19.4219 795.092 19.4219ZM885.805 63.6504L862.426 102H838.91L867.348 58.0449C864.659 56.9056 861.947 55.2422 859.213 53.0547C856.524 50.8672 854.291 47.9505 852.514 44.3047C850.736 40.6133 849.848 36.056 849.848 30.6328C849.848 21.3815 853.152 14.3177 859.76 9.44141C866.368 4.51953 875.642 2.05859 887.582 2.05859H920.121V102H898.93V63.6504H885.805ZM898.93 19.4219H888.471C884.825 19.4219 881.703 19.8548 879.105 20.7207C876.553 21.5866 874.594 22.9538 873.227 24.8223C871.905 26.6452 871.244 29.0833 871.244 32.1367C871.244 36.5573 872.702 40.0436 875.619 42.5957C878.536 45.1478 883.002 46.4238 889.018 46.4238H898.93V19.4219ZM1074.41 51.8926C1074.41 59.5944 1073.5 66.6126 1071.67 72.9473C1069.9 79.2363 1067.18 84.6595 1063.54 89.2168C1059.89 93.7741 1055.27 97.2832 1049.66 99.7441C1044.06 102.16 1037.45 103.367 1029.84 103.367C1020.54 103.367 1012.73 101.544 1006.39 97.8984C1000.1 94.207 995.248 89.0345 991.83 82.3809C988.412 75.6816 986.339 67.8431 985.609 58.8652H966.469V102H945.277V2.05859H966.469V41.2285H986.02C987.022 32.9342 989.278 25.7337 992.787 19.627C996.296 13.5202 1001.13 8.80339 1007.28 5.47656C1013.48 2.14974 1021.04 0.486328 1029.97 0.486328C1040.09 0.486328 1048.43 2.60547 1054.99 6.84375C1061.56 11.082 1066.43 17.0521 1069.62 24.7539C1072.81 32.4557 1074.41 41.502 1074.41 51.8926ZM1007.35 51.8926C1007.35 58.8652 1008.15 64.8809 1009.74 69.9395C1011.34 74.9525 1013.8 78.8262 1017.12 81.5605C1020.45 84.2493 1024.69 85.5938 1029.84 85.5938C1035.17 85.5938 1039.5 84.2493 1042.83 81.5605C1046.2 78.8262 1048.66 74.9525 1050.21 69.9395C1051.76 64.8809 1052.53 58.8652 1052.53 51.8926C1052.53 44.8743 1051.76 38.8587 1050.21 33.8457C1048.66 28.7871 1046.22 24.9134 1042.89 22.2246C1039.61 19.4902 1035.35 18.123 1030.11 18.123C1024.87 18.123 1020.56 19.4902 1017.19 22.2246C1013.82 24.9134 1011.34 28.7871 1009.74 33.8457C1008.15 38.8587 1007.35 44.8743 1007.35 51.8926ZM1133.68 102H1112.48V19.6953H1085.35V2.05859H1160.81V19.6953H1133.68V102Z" fill="#8B4BED" fill-opacity="0.08"/>
</svg>
