<svg width="1204" height="132" viewBox="0 0 1204 132" fill="none" xmlns="http://www.w3.org/2000/svg">
<path d="M82.3457 102H61.1543V63.377C55.2754 65.3822 49.8978 66.9089 45.0215 67.957C40.1452 69.0052 35.2233 69.5293 30.2559 69.5293C20.8678 69.5293 13.5534 67.2734 8.3125 62.7617C3.07161 58.2044 0.451172 51.7331 0.451172 43.3477V2.05859H21.5742V37.332C21.5742 42.1628 22.6908 45.8086 24.9238 48.2695C27.1569 50.6849 30.9395 51.8926 36.2715 51.8926C40.1908 51.8926 44.11 51.4824 48.0293 50.6621C51.9486 49.7962 56.3236 48.5202 61.1543 46.834V2.05859H82.3457V102ZM146.125 102H124.934V19.6953H97.7949V2.05859H173.264V19.6953H146.125V102ZM279.357 51.8926C279.357 59.5944 278.4 66.6126 276.486 72.9473C274.572 79.2363 271.656 84.6595 267.736 89.2168C263.863 93.7741 258.941 97.2832 252.971 99.7441C247.001 102.16 239.937 103.367 231.779 103.367C223.622 103.367 216.558 102.16 210.588 99.7441C204.618 97.2832 199.673 93.7741 195.754 89.2168C191.88 84.6595 188.986 79.2135 187.072 72.8789C185.158 66.5443 184.201 59.5033 184.201 51.7559C184.201 41.4108 185.887 32.4102 189.26 24.7539C192.678 17.0521 197.919 11.082 204.982 6.84375C212.046 2.60547 221.024 0.486328 231.916 0.486328C242.762 0.486328 251.672 2.60547 258.645 6.84375C265.663 11.082 270.858 17.0521 274.23 24.7539C277.648 32.4557 279.357 41.502 279.357 51.8926ZM206.418 51.8926C206.418 58.8652 207.284 64.8809 209.016 69.9395C210.793 74.9525 213.55 78.8262 217.287 81.5605C221.024 84.2493 225.855 85.5938 231.779 85.5938C237.795 85.5938 242.671 84.2493 246.408 81.5605C250.145 78.8262 252.857 74.9525 254.543 69.9395C256.275 64.8809 257.141 58.8652 257.141 51.8926C257.141 41.4108 255.181 33.1621 251.262 27.1465C247.342 21.1309 240.894 18.123 231.916 18.123C225.946 18.123 221.07 19.4902 217.287 22.2246C213.55 24.9134 210.793 28.7871 209.016 33.8457C207.284 38.8587 206.418 44.8743 206.418 51.8926ZM378.752 102L354.689 23.5918H354.074C354.165 25.4603 354.302 28.2858 354.484 32.0684C354.712 35.8053 354.917 39.793 355.1 44.0312C355.282 48.2695 355.373 52.0977 355.373 55.5156V102H336.438V2.05859H365.285L388.938 78.4844H389.348L414.436 2.05859H443.283V102H423.527V54.6953C423.527 51.5508 423.573 47.9277 423.664 43.8262C423.801 39.7246 423.96 35.8281 424.143 32.1367C424.325 28.3997 424.462 25.597 424.553 23.7285H423.938L398.166 102H378.752ZM468.508 102V2.05859H489.699V40.4082H496.535C505.786 40.4082 513.374 41.707 519.299 44.3047C525.269 46.9023 529.689 50.5026 532.561 55.1055C535.432 59.6628 536.867 64.8809 536.867 70.7598C536.867 80.6491 533.586 88.3281 527.023 93.7969C520.507 99.2656 510.116 102 495.852 102H468.508ZM489.699 84.6367H495.236C501.48 84.6367 506.402 83.6113 510.002 81.5605C513.602 79.4642 515.402 75.8639 515.402 70.7598C515.402 67.2051 514.582 64.4935 512.941 62.625C511.301 60.7565 508.908 59.4805 505.764 58.7969C502.619 58.1133 498.791 57.7715 494.279 57.7715H489.699V84.6367ZM549.035 102V2.05859H570.158V102H549.035ZM710.021 2.05859V84.3633H723.352V131.121H702.912V102H640.295V131.121H619.855V84.3633H627.58C630.178 79.168 632.684 73.6764 635.1 67.8887C637.515 62.1009 639.771 55.8802 641.867 49.2266C643.964 42.5729 645.855 35.3496 647.541 27.5566C649.227 19.7637 650.64 11.2643 651.779 2.05859H710.021ZM688.898 19.6953H668.596C667.912 24.526 666.978 29.6758 665.793 35.1445C664.608 40.6133 663.195 46.196 661.555 51.8926C659.96 57.5436 658.16 63.1263 656.154 68.6406C654.195 74.1549 652.098 79.3958 649.865 84.3633H688.898V19.6953ZM796.359 102H738.801V2.05859H796.359V19.4219H759.992V41.3652H793.83V58.7285H759.992V84.5H796.359V102ZM896.369 102H875.246V19.6953H850.773C850.227 23.9792 849.634 28.6504 848.996 33.709C848.358 38.7676 847.697 43.8717 847.014 49.0215C846.33 54.1712 845.601 59.0703 844.826 63.7188C844.097 68.3672 843.368 72.446 842.639 75.9551C841.454 81.7884 839.836 86.7559 837.785 90.8574C835.78 94.9134 833.023 98.0124 829.514 100.154C826.05 102.296 821.516 103.367 815.91 103.367C814.042 103.367 812.242 103.23 810.51 102.957C808.824 102.684 807.251 102.319 805.793 101.863V84.5C806.978 84.9102 808.163 85.252 809.348 85.5254C810.533 85.7533 811.831 85.8672 813.244 85.8672C815.067 85.8672 816.571 85.2747 817.756 84.0898C818.986 82.8594 820.08 80.7858 821.037 77.8691C821.994 74.9069 822.951 70.8281 823.908 65.6328C824.318 63.3542 824.865 60.1413 825.549 55.9941C826.232 51.8014 827.007 46.9023 827.873 41.2969C828.739 35.6458 829.628 29.4935 830.539 22.8398C831.496 16.1862 832.408 9.25911 833.273 2.05859H896.369V102ZM982.775 102L975.529 78.2109H939.094L931.848 102H909.016L944.289 1.64844H970.197L1005.61 102H982.775ZM970.471 60.4375L963.225 37.1953C962.769 35.6458 962.154 33.6634 961.379 31.248C960.65 28.7871 959.898 26.3034 959.123 23.7969C958.394 21.2448 957.801 19.0345 957.346 17.166C956.89 19.0345 956.252 21.3587 955.432 24.1387C954.657 26.873 953.905 29.4707 953.176 31.9316C952.447 34.3926 951.923 36.1471 951.604 37.1953L944.426 60.4375H970.471ZM1075.81 102H1018.25V2.05859H1075.81V19.4219H1039.45V41.3652H1073.28V58.7285H1039.45V84.5H1075.81V102ZM1139.04 102L1114.98 23.5918H1114.37C1114.46 25.4603 1114.6 28.2858 1114.78 32.0684C1115.01 35.8053 1115.21 39.793 1115.39 44.0312C1115.57 48.2695 1115.67 52.0977 1115.67 55.5156V102H1096.73V2.05859H1125.58L1149.23 78.4844H1149.64L1174.73 2.05859H1203.58V102H1183.82V54.6953C1183.82 51.5508 1183.87 47.9277 1183.96 43.8262C1184.09 39.7246 1184.25 35.8281 1184.44 32.1367C1184.62 28.3997 1184.75 25.597 1184.85 23.7285H1184.23L1158.46 102H1139.04Z" fill="#8B4BED" fill-opacity="0.08"/>
</svg>
