<svg width="1066" height="95" viewBox="0 0 1066 95" fill="none" xmlns="http://www.w3.org/2000/svg">
<path d="M74.875 93H55.5625V53.5625H19.375V93H0V1.625H19.375V37.4375H55.5625V1.625H74.875V93ZM153.938 93L147.312 71.25H114L107.375 93H86.5L118.75 1.25H142.438L174.812 93H153.938ZM142.688 55L136.062 33.75C135.646 32.3333 135.083 30.5208 134.375 28.3125C133.708 26.0625 133.021 23.7917 132.312 21.5C131.646 19.1667 131.104 17.1458 130.688 15.4375C130.271 17.1458 129.688 19.2708 128.938 21.8125C128.229 24.3125 127.542 26.6875 126.875 28.9375C126.208 31.1875 125.729 32.7917 125.438 33.75L118.875 55H142.688ZM301.312 93H186.375V1.625H205.75V76.875H234.125V1.625H253.625V76.875H282V1.625H301.312V93ZM324.375 1.625H341.812V45.75C341.812 47.9167 341.771 50.3125 341.688 52.9375C341.646 55.5625 341.562 58.1458 341.438 60.6875C341.354 63.1875 341.271 65.375 341.188 67.25C341.104 69.125 341.021 70.375 340.938 71H341.312L383.5 1.625H406.688V93H389.438V49.125C389.438 46.7917 389.479 44.25 389.562 41.5C389.646 38.75 389.75 36.0833 389.875 33.5C390.042 30.9167 390.188 28.6875 390.312 26.8125C390.438 24.8958 390.521 23.625 390.562 23H390.062L347.688 93H324.375V1.625ZM463 93V1.625H535.312V93H516V17.75H482.375V93H463ZM587.562 1.625C599.354 1.625 607.958 4.16667 613.375 9.25C618.792 14.2917 621.5 21.25 621.5 30.125C621.5 34.125 620.896 37.9583 619.688 41.625C618.479 45.25 616.5 48.4792 613.75 51.3125C611.042 54.1458 607.417 56.3958 602.875 58.0625C598.333 59.6875 592.729 60.5 586.062 60.5H577.75V93H558.375V1.625H587.562ZM586.562 17.5H577.75V44.625H584.125C587.75 44.625 590.896 44.1458 593.562 43.1875C596.229 42.2292 598.292 40.7292 599.75 38.6875C601.208 36.6458 601.938 34.0208 601.938 30.8125C601.938 26.3125 600.688 22.9792 598.188 20.8125C595.688 18.6042 591.812 17.5 586.562 17.5ZM721.688 47.1875C721.688 54.2292 720.812 60.6458 719.062 66.4375C717.312 72.1875 714.646 77.1458 711.062 81.3125C707.521 85.4792 703.021 88.6875 697.562 90.9375C692.104 93.1458 685.646 94.25 678.188 94.25C670.729 94.25 664.271 93.1458 658.812 90.9375C653.354 88.6875 648.833 85.4792 645.25 81.3125C641.708 77.1458 639.062 72.1667 637.312 66.375C635.562 60.5833 634.688 54.1458 634.688 47.0625C634.688 37.6042 636.229 29.375 639.312 22.375C642.438 15.3333 647.229 9.875 653.688 6C660.146 2.125 668.354 0.1875 678.312 0.1875C688.229 0.1875 696.375 2.125 702.75 6C709.167 9.875 713.917 15.3333 717 22.375C720.125 29.4167 721.688 37.6875 721.688 47.1875ZM655 47.1875C655 53.5625 655.792 59.0625 657.375 63.6875C659 68.2708 661.521 71.8125 664.938 74.3125C668.354 76.7708 672.771 78 678.188 78C683.688 78 688.146 76.7708 691.562 74.3125C694.979 71.8125 697.458 68.2708 699 63.6875C700.583 59.0625 701.375 53.5625 701.375 47.1875C701.375 37.6042 699.583 30.0625 696 24.5625C692.417 19.0625 686.521 16.3125 678.312 16.3125C672.854 16.3125 668.396 17.5625 664.938 20.0625C661.521 22.5208 659 26.0625 657.375 30.6875C655.792 35.2708 655 40.7708 655 47.1875ZM793.25 93H740.625V1.625H793.25V17.5H760V37.5625H790.938V53.4375H760V77H793.25V93ZM886.875 93H864.875L831.75 46.6875V93H812.375V1.625H831.75V45.875L864.5 1.625H885.125L851.812 45.5L886.875 93ZM933.625 93H914.25V17.75H889.438V1.625H958.438V17.75H933.625V93ZM972.5 93V1.625H991.875V36.6875H998.125C1006.58 36.6875 1013.52 37.875 1018.94 40.25C1024.4 42.625 1028.44 45.9167 1031.06 50.125C1033.69 54.2917 1035 59.0625 1035 64.4375C1035 73.4792 1032 80.5 1026 85.5C1020.04 90.5 1010.54 93 997.5 93H972.5ZM991.875 77.125H996.938C1002.65 77.125 1007.15 76.1875 1010.44 74.3125C1013.73 72.3958 1015.38 69.1042 1015.38 64.4375C1015.38 61.1875 1014.62 58.7083 1013.12 57C1011.62 55.2917 1009.44 54.125 1006.56 53.5C1003.69 52.875 1000.19 52.5625 996.062 52.5625H991.875V77.125ZM1046.12 93V1.625H1065.44V93H1046.12Z" fill="#8B4BED" fill-opacity="0.08"/>
</svg>
