<svg width="256" height="105" viewBox="0 0 256 105" fill="none" xmlns="http://www.w3.org/2000/svg">
<path d="M73.7891 39H65.6416V22.3623H50.375V39H42.2012V0.451172H50.375V15.5596H65.6416V0.451172H73.7891V39ZM107.144 39L104.349 29.8242H90.2949L87.5 39H78.6934L92.2988 0.292969H102.292L115.95 39H107.144ZM102.397 22.9688L99.6025 14.0039C99.4268 13.4062 99.1895 12.6416 98.8906 11.71C98.6094 10.7607 98.3193 9.80273 98.0205 8.83594C97.7393 7.85156 97.5107 6.99902 97.335 6.27832C97.1592 6.99902 96.9131 7.89551 96.5967 8.96777C96.2979 10.0225 96.0078 11.0244 95.7266 11.9736C95.4453 12.9229 95.2432 13.5996 95.1201 14.0039L92.3516 22.9688H102.397ZM169.317 39H120.828V0.451172H129.002V32.1973H140.973V0.451172H149.199V32.1973H161.17V0.451172H169.317V39ZM179.047 0.451172H186.403V19.0664C186.403 19.9805 186.386 20.9912 186.351 22.0986C186.333 23.2061 186.298 24.2959 186.245 25.3682C186.21 26.4229 186.175 27.3457 186.14 28.1367C186.104 28.9277 186.069 29.4551 186.034 29.7188H186.192L203.99 0.451172H213.772V39H206.495V20.4902C206.495 19.5059 206.513 18.4336 206.548 17.2734C206.583 16.1133 206.627 14.9883 206.68 13.8984C206.75 12.8086 206.812 11.8682 206.864 11.0771C206.917 10.2686 206.952 9.73242 206.97 9.46875H206.759L188.882 39H179.047V0.451172ZM0.910156 104V65.4512H31.417V104H23.2695V72.2539H9.08398V104H0.910156ZM53.46 65.4512C58.4346 65.4512 62.0645 66.5234 64.3496 68.668C66.6348 70.7949 67.7773 73.7305 67.7773 77.4746C67.7773 79.1621 67.5225 80.7793 67.0127 82.3262C66.5029 83.8555 65.668 85.2178 64.5078 86.4131C63.3652 87.6084 61.8359 88.5576 59.9199 89.2607C58.0039 89.9463 55.6396 90.2891 52.8271 90.2891H49.3203V104H41.1465V65.4512H53.46ZM53.0381 72.1484H49.3203V83.5918H52.0098C53.5391 83.5918 54.8662 83.3896 55.9912 82.9854C57.1162 82.5811 57.9863 81.9482 58.6016 81.0869C59.2168 80.2256 59.5244 79.1182 59.5244 77.7646C59.5244 75.8662 58.9971 74.46 57.9424 73.5459C56.8877 72.6143 55.2529 72.1484 53.0381 72.1484ZM110.044 84.6729C110.044 87.6436 109.675 90.3506 108.937 92.7939C108.198 95.2197 107.073 97.3115 105.562 99.0693C104.067 100.827 102.169 102.181 99.8662 103.13C97.5635 104.062 94.8389 104.527 91.6924 104.527C88.5459 104.527 85.8213 104.062 83.5186 103.13C81.2158 102.181 79.3086 100.827 77.7969 99.0693C76.3027 97.3115 75.1865 95.2109 74.4482 92.7676C73.71 90.3242 73.3408 87.6084 73.3408 84.6201C73.3408 80.6299 73.9912 77.1582 75.292 74.2051C76.6104 71.2344 78.6318 68.9316 81.3564 67.2969C84.0811 65.6621 87.5439 64.8447 91.7451 64.8447C95.9287 64.8447 99.3652 65.6621 102.055 67.2969C104.762 68.9316 106.766 71.2344 108.066 74.2051C109.385 77.1758 110.044 80.665 110.044 84.6729ZM81.9102 84.6729C81.9102 87.3623 82.2441 89.6826 82.9121 91.6338C83.5977 93.5674 84.6611 95.0615 86.1025 96.1162C87.5439 97.1533 89.4072 97.6719 91.6924 97.6719C94.0127 97.6719 95.8936 97.1533 97.335 96.1162C98.7764 95.0615 99.8223 93.5674 100.473 91.6338C101.141 89.6826 101.475 87.3623 101.475 84.6729C101.475 80.6299 100.719 77.4482 99.207 75.1279C97.6953 72.8076 95.208 71.6475 91.7451 71.6475C89.4424 71.6475 87.5615 72.1748 86.1025 73.2295C84.6611 74.2666 83.5977 75.7607 82.9121 77.7119C82.2441 79.6455 81.9102 81.9658 81.9102 84.6729ZM140.234 104H118.033V65.4512H140.234V72.1484H126.207V80.6123H139.259V87.3096H126.207V97.25H140.234V104ZM179.732 104H170.451L156.477 84.4619V104H148.303V65.4512H156.477V84.1191L170.293 65.4512H178.994L164.94 83.9609L179.732 104ZM199.455 104H191.281V72.2539H180.813V65.4512H209.923V72.2539H199.455V104ZM215.855 104V65.4512H224.029V80.2432H226.666C230.234 80.2432 233.161 80.7441 235.446 81.7461C237.749 82.748 239.454 84.1367 240.562 85.9121C241.669 87.6699 242.223 89.6826 242.223 91.9502C242.223 95.7646 240.957 98.7266 238.426 100.836C235.912 102.945 231.904 104 226.402 104H215.855ZM224.029 97.3027H226.165C228.573 97.3027 230.472 96.9072 231.86 96.1162C233.249 95.3076 233.943 93.9189 233.943 91.9502C233.943 90.5791 233.627 89.5332 232.994 88.8125C232.361 88.0918 231.438 87.5996 230.226 87.3359C229.013 87.0723 227.536 86.9404 225.796 86.9404H224.029V97.3027ZM246.916 104V65.4512H255.063V104H246.916Z" fill="#8B4BED" fill-opacity="0.08"/>
</svg>
